<svg id="Capa_1" data-name="Capa 1" xmlns="http://www.w3.org/2000/svg" viewBox="0 0 135 298"><defs><style>.cls-1{fill:#70926c;}.cls-2{fill:#383839;}.cls-3{fill:red;}.cls-4{fill:#ffe603;}.cls-5{fill:#161616;}</style></defs><title>persona-1</title><polygon class="cls-1" points="86 28 11 0 0 7 30 98 31 170 29 186 39 268 54 252 57 178 86 28"/><polygon class="cls-2" points="48 137 101 137 94 208 83 236 89 273 79 283 79 298 63 275 65 235 48 137"/><path class="cls-3" d="M305,120l-48,11-47-10-14,4,22,39,1,81,63-2,5-80,25-35Zm-52,38-29-13,53-1Z" transform="translate(-177 -101)"/><circle class="cls-4" cx="74.5" cy="38.5" r="19.5"/><polygon class="cls-5" points="64 231.3 64 198 49.1 144.7 64 231.3"/></svg>